<svg width="160" height="97" viewBox="0 0 160 97" fill="none" xmlns="http://www.w3.org/2000/svg">
<path d="M149.246 0.359741L141.442 3.16904L142.632 6.47386L60.5921 19.9357L57.4013 9.39304L53.4331 10.5935L56.798 21.7104L0.0439453 85.381L74.7672 92.9526C75.4389 95.2415 77.5557 96.9188 80.0582 96.9188C83.0997 96.9188 85.5731 94.4454 85.5731 91.4039C85.5731 90.5953 85.3969 89.8282 85.0838 89.1357L149.64 25.9378L151.622 31.4424L159.426 28.6331L149.246 0.359741ZM75.186 88.8247L7.66534 82.7209L58.1602 26.2115L76.5958 87.1163C76.0174 87.5828 75.5384 88.1633 75.186 88.8247ZM80.0582 94.8455C78.157 94.8455 76.6165 93.3051 76.6165 91.4039C76.6165 89.5027 78.157 87.9622 80.0582 87.9622C81.9594 87.9622 83.4998 89.5027 83.4998 91.4039C83.4998 93.303 81.9594 94.8455 80.0582 94.8455ZM82.0776 86.2725C81.6007 86.0838 81.0928 85.9594 80.562 85.9117L61.8029 23.9351L144.06 10.438L148.095 21.6441L82.0776 86.2725Z" fill="white"/>
</svg>
