<svg width="78" height="78" viewBox="0 0 78 78" fill="none" xmlns="http://www.w3.org/2000/svg">
<path d="M31.9983 33.3013C24.9939 33.3013 19.2937 39 19.2937 46.0059C19.2937 53.0088 24.9924 58.709 31.9983 58.709C39.0012 58.709 44.7014 53.0103 44.7014 46.0059C44.6998 39 39.0012 33.3013 31.9983 33.3013ZM31.9983 58.0975C25.3293 58.0975 19.9021 52.6718 19.9021 46.0044C19.9021 39.3338 25.3293 33.9081 31.9983 33.9081C38.6658 33.9081 44.0915 39.3354 44.0915 46.0044C44.0915 52.6718 38.6658 58.0975 31.9983 58.0975ZM31.9983 41.9094C29.741 41.9094 27.9033 43.7471 27.9033 46.0044C27.9033 48.2601 29.741 50.0994 31.9983 50.0994C34.2556 50.0994 36.0933 48.2617 36.0933 46.0044C36.0933 43.7439 34.2556 41.9094 31.9983 41.9094ZM31.9983 47.6689C31.0779 47.6689 30.3323 46.9217 30.3323 46.0059C30.3323 45.0871 31.0795 44.3399 31.9983 44.3399C32.9172 44.3399 33.6628 45.0871 33.6628 46.0059C33.6628 46.9217 32.9187 47.6689 31.9983 47.6689ZM61.6617 22.0287C62.1235 21.3642 62.3996 20.5639 62.3996 19.695C62.3996 17.4377 60.5619 15.6 58.3046 15.6C57.5574 15.6 56.8678 15.8153 56.2626 16.1647L56.2594 16.1569L25.1109 31.1157L25.1203 31.1345C19.5074 33.7412 15.5996 39.4181 15.5996 46.0013C15.5996 55.0415 22.955 62.4 31.9983 62.4C38.4942 62.4 44.1039 58.5936 46.7544 53.1008L46.7762 53.1102L61.6617 22.0287ZM58.1346 23.7744L48.3034 44.2962C47.5032 36.6116 41.377 30.4871 33.6925 29.6961L54.2221 19.8354C54.2954 21.9695 56.0005 23.6839 58.1346 23.7744ZM59.9676 19.695C59.9676 20.0943 59.8209 20.4563 59.5885 20.7433L59.5838 20.7417L59.5745 20.7589C59.2687 21.1224 58.8163 21.3595 58.3046 21.3595C57.3842 21.3595 56.6385 20.6123 56.6385 19.695C56.6385 18.7777 57.3858 18.0305 58.3046 18.0305C59.2234 18.0305 59.9676 18.7793 59.9676 19.695ZM31.9983 59.9695C24.295 59.9695 18.0316 53.703 18.0316 46.0013C18.0316 38.298 24.2982 32.033 31.9983 32.033C39.7016 32.033 45.965 38.2995 45.965 46.0013C45.965 53.7045 39.6985 59.9695 31.9983 59.9695ZM30.5288 37.8893C30.5288 37.0781 31.1856 36.4213 31.9936 36.4213C32.8048 36.4213 33.46 37.0781 33.46 37.8893C33.46 38.7005 32.8033 39.3557 31.9936 39.3557C31.1856 39.3557 30.5288 38.6989 30.5288 37.8893ZM33.4632 54.4877C33.4632 55.2989 32.8048 55.9556 31.9983 55.9556C31.1871 55.9556 30.5304 55.2973 30.5304 54.4877C30.5304 53.678 31.1887 53.0197 31.9983 53.0197C32.8048 53.0181 33.4632 53.6765 33.4632 54.4877ZM41.7624 46.1869C41.7624 46.9981 41.1072 47.6517 40.296 47.6517C39.4848 47.6517 38.8296 46.9965 38.8296 46.1869C38.8296 45.3773 39.4879 44.7221 40.296 44.7221C41.1087 44.7221 41.7624 45.3773 41.7624 46.1869ZM25.1655 46.1869C25.1655 46.9981 24.5072 47.6517 23.6991 47.6517C22.8879 47.6517 22.2327 46.9965 22.2327 46.1869C22.2327 45.3773 22.8895 44.7221 23.6991 44.7221C24.5072 44.7221 25.1655 45.3773 25.1655 46.1869Z" fill="white"/>
</svg>
