<svg width="50" height="50" viewBox="0 0 50 50" fill="none" xmlns="http://www.w3.org/2000/svg">
<path d="M12.1471 21.2359C12.886 21.2359 13.6088 21.1367 14.3082 20.9658C14.3458 21.0172 14.3668 21.077 14.4134 21.1236L17.5577 24.268C17.7967 24.5069 18.1097 24.6263 18.4227 24.6263C18.7357 24.6263 19.0487 24.5069 19.2877 24.268C19.7655 23.7901 19.7655 23.0159 19.2877 22.5381L16.7281 19.9779C17.3744 19.5956 17.9824 19.138 18.5278 18.5921C18.7763 18.3436 19.0039 18.0796 19.2195 17.8084L21.8544 20.4426C22.0933 20.6816 22.4063 20.801 22.7193 20.801C23.0324 20.801 23.3453 20.6815 23.5842 20.4426C24.0621 19.9648 24.0621 19.1906 23.5842 18.7128L20.5014 15.6305C20.9392 14.5601 21.1704 13.4049 21.171 12.2126C21.171 9.80296 20.232 7.53784 18.5278 5.83305C16.6653 3.97056 14.0991 3.0232 11.4595 3.22272C10.9828 3.25854 10.5713 3.56913 10.4052 4.01713C10.2397 4.46518 10.3497 4.96928 10.6877 5.30736L12.2916 6.91182C13.0185 7.63937 13.4193 8.60582 13.4193 9.63442C13.4193 10.6619 13.0185 11.6295 12.291 12.3571C10.8371 13.8098 8.29961 13.8098 6.8457 12.3571L5.24184 10.7526C4.90372 10.4133 4.40021 10.3047 3.95216 10.4707C3.50357 10.6367 3.19353 11.0477 3.1571 11.5243C2.95704 14.1574 3.90799 16.7331 5.76748 18.5932C7.47173 20.2968 9.73739 21.2359 12.1471 21.2359ZM9.5684 15.9316C11.2505 15.9316 12.8316 15.2757 14.0209 14.087C15.2108 12.8971 15.8655 11.3165 15.8661 9.63442C15.8661 8.40511 15.5161 7.22955 14.8644 6.22243C15.5758 6.54382 16.2299 6.99541 16.798 7.56288C18.0398 8.80533 18.7243 10.4564 18.7243 12.2125C18.7243 13.9687 18.0398 15.6197 16.798 16.8622C15.5555 18.1046 13.9039 18.7892 12.1471 18.7892C10.3909 18.7892 8.73932 18.1046 7.49746 16.8633C6.93359 16.2995 6.4844 15.6448 6.16301 14.9327C7.16888 15.5826 8.34204 15.9316 9.5684 15.9316Z" fill="white"/>
<path d="M44.0729 31.2616C42.3687 29.558 40.103 28.619 37.6934 28.619C36.4711 28.619 35.2873 28.8627 34.1942 29.3226L28.3492 23.4795L38.1874 13.3511C39.3002 12.6535 40.3993 11.5818 40.6657 10.92C40.9416 10.2342 41.0504 9.55686 40.9064 9.4147C40.7631 9.27135 40.5283 9.03596 40.3844 8.89261C40.2404 8.74925 39.5625 8.85678 38.8779 9.13279C38.2077 9.40396 37.1128 10.5341 36.4157 11.6643L19.6909 28.8818L15.5717 28.4673C15.2043 28.4338 14.8525 28.5569 14.5939 28.8101C13.7003 29.6846 5.98984 37.53 5.66971 37.8562C3.62445 39.9002 3.52172 42.3505 5.39555 44.4112C6.31367 45.4207 7.49757 45.9703 8.82007 46.0014C8.8589 46.0014 8.89832 46.0025 8.93714 46.0025C10.4753 46.0025 11.8665 45.3 12.5922 44.5725C15.6667 41.3792 20.5111 36.4069 21.2584 35.7989C21.7828 35.3724 21.8617 34.6018 21.4357 34.0785C21.0093 33.554 20.2375 33.474 19.7148 33.9018C18.6122 34.7977 11.6234 42.0517 10.8457 42.8593C10.5452 43.1604 9.7382 43.606 8.87684 43.5547C8.22213 43.5391 7.675 43.281 7.20552 42.7649C6.54367 42.0373 5.96721 41.0171 7.40738 39.5788C7.48028 39.5047 14.0521 32.8169 15.9027 30.9592L20.0344 31.3749C20.4101 31.4108 20.7739 31.2781 21.0343 31.0094L22.643 29.3535L28.906 35.616C28.7555 36.2742 28.6695 36.9505 28.6695 37.6422C28.6695 40.0518 29.6085 42.3169 31.3127 44.0217C33.0127 45.7229 35.2777 46.6595 37.6905 46.6595C37.9204 46.6595 38.1503 46.6512 38.3804 46.6333C38.857 46.5974 39.2686 46.2868 39.4347 45.8389C39.6008 45.3908 39.4908 44.8867 39.1527 44.5486L37.5488 42.9442C36.0478 41.4425 36.0478 38.9994 37.5494 37.4977C39.0034 36.0449 41.5408 36.0449 42.9948 37.4977L44.5986 39.1021C44.9361 39.4402 45.439 39.5489 45.8882 39.384C46.3368 39.218 46.6469 38.807 46.6833 38.3304C46.8833 35.6974 45.9324 33.1217 44.0729 31.2616ZM24.3477 27.5987L26.6445 25.2345L32.0313 30.62C31.7828 30.8207 31.5421 31.0334 31.3127 31.2627C30.747 31.8279 30.2744 32.4598 29.8838 33.1336L24.3477 27.5987ZM40.272 33.9245C38.5899 33.9245 37.0088 34.5791 35.8195 35.7678C33.687 37.9004 33.4063 41.1952 34.9785 43.6335C34.2658 43.311 33.6106 42.8606 33.0425 42.2919C31.8006 41.0495 31.1161 39.3984 31.1161 37.6423C31.1161 35.8861 31.8006 34.2351 33.0425 32.9926C34.2849 31.7502 35.9365 31.0656 37.6934 31.0656C39.4495 31.0656 41.1011 31.7502 42.343 32.9914C42.9069 33.5553 43.3561 34.21 43.6774 34.922C42.6715 34.2721 41.4983 33.9245 40.272 33.9245Z" fill="white"/>
</svg>
