<svg width="50" height="50" viewBox="0 0 50 50" fill="none" xmlns="http://www.w3.org/2000/svg">
<path d="M46.167 16.1377C45.0146 13.4082 43.3594 10.957 41.2549 8.85254C39.1504 6.74805 36.6992 5.09766 33.9697 3.94043C31.1426 2.74902 28.1445 2.14355 25.0488 2.14355C21.9531 2.14355 18.9551 2.74902 16.1279 3.94531C13.3984 5.09766 10.9473 6.75293 8.84277 8.85742C6.73828 10.9619 5.08789 13.4131 3.93066 16.1426C2.73438 18.9697 2.12891 21.9678 2.12891 25.0635C2.12891 28.1592 2.73926 31.1523 3.93066 33.9795C5.08789 36.709 6.73828 39.1602 8.84277 41.2646C10.9473 43.3691 13.3984 45.0195 16.1279 46.1768C18.9551 47.373 21.9531 47.9785 25.0488 47.9785C28.1445 47.9785 31.1426 47.373 33.9697 46.1768C36.6992 45.0244 39.1504 43.3691 41.2549 41.2646C43.3594 39.1602 45.0098 36.709 46.167 33.9795C47.3633 31.1523 47.9688 28.1543 47.9688 25.0586C47.9688 21.9629 47.3584 18.9648 46.167 16.1377ZM44.3652 33.2178C43.3105 35.7129 41.7969 37.9541 39.873 39.8828C37.9492 41.8066 35.7031 43.3203 33.208 44.375C30.625 45.4688 27.8809 46.0254 25.0488 46.0254C22.2168 46.0254 19.4727 45.4736 16.8896 44.3799C14.3945 43.3252 12.1533 41.8115 10.2246 39.8877C8.30078 37.9639 6.78711 35.7178 5.73242 33.2227C4.63867 30.6348 4.08203 27.8906 4.08203 25.0586C4.08203 22.2266 4.63379 19.4824 5.72754 16.8994C6.78223 14.4043 8.2959 12.1631 10.2197 10.2344C12.1436 8.31055 14.3896 6.79688 16.8848 5.74219C19.4727 4.64844 22.2168 4.09668 25.0488 4.09668C27.8809 4.09668 30.625 4.64844 33.208 5.74219C35.7031 6.79688 37.9443 8.31055 39.873 10.2344C41.7969 12.1582 43.3105 14.4043 44.3652 16.8994C45.459 19.4824 46.0107 22.2266 46.0107 25.0586C46.0156 27.8906 45.459 30.6348 44.3652 33.2178Z" fill="white"/>
<path d="M39.209 10.9033C37.3682 9.0625 35.2295 7.62207 32.8467 6.61133C30.376 5.56641 27.7539 5.03418 25.0488 5.03418C22.3438 5.03418 19.7217 5.56152 17.2559 6.60645C14.873 7.61719 12.7295 9.05762 10.8936 10.8984C9.05762 12.7393 7.6123 14.8779 6.60156 17.2607C5.55664 19.7314 5.0293 22.3535 5.0293 25.0537C5.0293 27.7588 5.55664 30.3809 6.60156 32.8467C7.6123 35.2295 9.05273 37.373 10.8936 39.209C12.7344 41.0449 14.873 42.4902 17.2559 43.501C19.7266 44.5459 22.3486 45.0732 25.0488 45.0732C27.7539 45.0732 30.376 44.5459 32.8418 43.501C35.2246 42.4902 37.3682 41.0498 39.2041 39.209C41.04 37.3682 42.4854 35.2295 43.4961 32.8467C44.541 30.376 45.0684 27.7539 45.0684 25.0537C45.0684 22.3486 44.541 19.7266 43.4961 17.2607C42.4902 14.8828 41.0449 12.7393 39.209 10.9033ZM44.2285 21.4648L31.5918 23.1201L41.9434 15.3027C42.3438 15.9961 42.7051 16.7188 43.0225 17.4658C43.5693 18.7598 43.9697 20.0928 44.2285 21.4648ZM41.8408 15.127L31.1816 23.1738L29.5605 23.3838C29.5752 23.3545 29.5752 23.3252 29.5654 23.291C29.5508 23.252 29.5166 23.2227 29.4775 23.2129L28.4277 22.9639L28.7402 21.9287C28.75 21.8896 28.7451 21.8457 28.7158 21.8164C28.6914 21.7871 28.6475 21.7676 28.6084 21.7725L28.2764 21.8115L28.7646 19.6875L37.5684 10.0879C38.0078 10.459 38.4326 10.8447 38.8428 11.2549C40.0098 12.4316 41.0107 13.7256 41.8408 15.127ZM28.8916 25.0293C28.9111 25.0537 28.9404 25.0684 28.9746 25.0684C28.9941 25.0684 29.0186 25.0635 29.0381 25.0488L29.3164 24.8389L29.5166 24.9707L28.6621 25.5322C28.6328 25.5518 28.6133 25.5811 28.6084 25.6152C28.6035 25.6494 28.6084 25.6836 28.6328 25.708L29.2432 26.5283L29.2236 26.5332L28.7891 26.2549C28.7402 26.2256 28.6768 26.2402 28.6475 26.2842C28.6182 26.333 28.6328 26.3965 28.6768 26.4258L28.9404 26.5967L28.2422 26.7627C28.208 26.7725 28.1836 26.792 28.1641 26.8213C28.1445 26.8506 28.1445 26.8848 28.1543 26.9189L28.3203 27.4609L28.042 27.4463C27.9883 27.4414 27.9395 27.4853 27.9346 27.5439C27.9297 27.6025 27.9736 27.6465 28.0322 27.6514L28.3838 27.6709L28.4521 27.9004L27.4365 27.7783C27.4023 27.7734 27.3682 27.7832 27.3438 27.8076C27.3193 27.8271 27.3047 27.8613 27.2998 27.8955L27.2412 28.916L27.2217 28.9062L27.0654 28.418C27.0508 28.3643 26.9922 28.335 26.9385 28.3496C26.8848 28.3643 26.8555 28.4229 26.8701 28.4766L26.9629 28.7744L26.3232 28.4521C26.2939 28.4375 26.2598 28.4326 26.2256 28.4473C26.1963 28.457 26.167 28.4814 26.1572 28.5156L25.9326 29.0381L25.7275 28.8477C25.6885 28.8086 25.6201 28.8135 25.5811 28.8525C25.542 28.8916 25.5469 28.96 25.5859 28.999L25.8447 29.2383L25.752 29.458L25.0537 28.7109C25.0098 28.6621 24.9219 28.6621 24.8779 28.7109L24.1797 29.4434L24.1699 29.4238L24.3652 28.9502C24.3848 28.8965 24.3604 28.8379 24.3115 28.8184C24.2578 28.7988 24.1992 28.8232 24.1797 28.8721L24.0576 29.1602L23.7744 28.501C23.7598 28.4717 23.7354 28.4473 23.7061 28.4326C23.6914 28.4277 23.6768 28.4228 23.6621 28.4228C23.6426 28.4228 23.623 28.4277 23.6084 28.4375L23.1006 28.6914L23.0664 28.418C23.0615 28.3594 23.0078 28.3203 22.9541 28.3301C22.8955 28.335 22.8564 28.3887 22.8662 28.4424L22.9102 28.7891L22.7002 28.8965L22.6416 27.876C22.6416 27.8418 22.6221 27.8125 22.5977 27.7881C22.5732 27.7637 22.5391 27.7588 22.5049 27.7588L21.4893 27.8809L21.4941 27.8662L21.9531 27.627C22.002 27.6025 22.0215 27.5391 21.9971 27.4902C21.9727 27.4414 21.9092 27.4219 21.8604 27.4463L21.582 27.5928L21.7871 26.9043C21.7969 26.8701 21.792 26.8359 21.7773 26.8066C21.7627 26.7773 21.7334 26.7578 21.6992 26.748L21.1475 26.6162L21.2988 26.3818C21.3281 26.333 21.3184 26.2695 21.2695 26.2402C21.2207 26.2109 21.1572 26.2207 21.1279 26.2695L20.9375 26.5625L20.708 26.5088L21.3184 25.6885C21.3379 25.6592 21.3477 25.625 21.3428 25.5957C21.3379 25.5615 21.3184 25.5322 21.2891 25.5127L20.7031 25.1318L20.8691 25.1709C20.8789 25.1709 20.8838 25.1758 20.8936 25.1758C20.9424 25.1758 20.9814 25.1416 20.9912 25.0977C21.0059 25.0439 20.9717 24.9854 20.9131 24.9756L20.5371 24.8877L21.2842 24.3994C21.3135 24.3799 21.333 24.3506 21.3379 24.3164C21.3428 24.2822 21.3379 24.248 21.3135 24.2236L20.9717 23.7695L21.2354 23.6865C21.2891 23.6719 21.3184 23.6133 21.3037 23.5596C21.2891 23.5059 21.2305 23.4766 21.1768 23.4912L20.8398 23.5938L20.6982 23.4033L21.6943 23.1689C21.7285 23.1592 21.7529 23.1396 21.7725 23.1104C21.792 23.0811 21.792 23.0469 21.7822 23.0127L21.4893 22.0312L21.5088 22.0361L21.8213 22.4414C21.8408 22.4658 21.8701 22.4805 21.9043 22.4805C21.9238 22.4805 21.9482 22.4756 21.9678 22.4609C22.0117 22.4268 22.0215 22.3633 21.9873 22.3193L21.7969 22.0703L22.5098 22.1533C22.5439 22.1582 22.5781 22.1484 22.6025 22.124C22.627 22.0996 22.6465 22.0703 22.6465 22.0361L22.6807 21.4697L22.9346 21.5771C22.9492 21.582 22.9639 21.5869 22.9736 21.5869C23.0127 21.5869 23.0518 21.5625 23.0664 21.5234C23.0908 21.4697 23.0664 21.4111 23.0127 21.3867L22.6904 21.25L22.7051 21.0156L23.6182 21.4746C23.6475 21.4893 23.6816 21.4941 23.7158 21.4795C23.7451 21.4697 23.7744 21.4453 23.7842 21.4111L24.1895 20.4688L24.2041 20.4834L24.1797 20.9961C24.1748 21.0547 24.2188 21.0986 24.2773 21.1035H24.2822C24.3359 21.1035 24.3799 21.0596 24.3848 21.0059L24.3994 20.6934L24.8877 21.2158C24.9316 21.2646 25.0195 21.2646 25.0635 21.2158L25.4541 20.8008L25.5811 21.0498C25.6006 21.084 25.6348 21.1035 25.6738 21.1035C25.6885 21.1035 25.7031 21.0986 25.7227 21.0938C25.7715 21.0693 25.791 21.0059 25.7666 20.957L25.6055 20.6445L25.7666 20.4736L26.1719 21.416C26.1865 21.4453 26.2109 21.4697 26.2402 21.4844C26.2695 21.4941 26.3086 21.4941 26.3379 21.4795L27.251 21.0205V21.04L26.9043 21.416C26.8652 21.46 26.8701 21.5234 26.9092 21.5625C26.9287 21.582 26.9531 21.5918 26.9775 21.5918C27.0068 21.5918 27.0312 21.582 27.0508 21.5576L27.2607 21.3281L27.2998 22.041C27.2998 22.0752 27.3193 22.1045 27.3438 22.1289C27.3682 22.1484 27.4023 22.1582 27.4365 22.1582L28.0029 22.0898L27.9395 22.3584C27.9248 22.4121 27.959 22.4707 28.0176 22.4805C28.0273 22.4805 28.0322 22.4854 28.042 22.4854C28.0908 22.4854 28.1299 22.4512 28.1396 22.4072L28.2178 22.0654L28.4521 22.0361L28.1592 23.0176C28.1494 23.0518 28.1543 23.0859 28.1689 23.1152C28.1836 23.1445 28.2129 23.1641 28.2471 23.1738L29.2432 23.4082L29.2285 23.4229L28.7207 23.4912C28.6621 23.501 28.623 23.5498 28.6328 23.6084C28.6377 23.6621 28.6816 23.6963 28.7354 23.6963H28.75L29.0625 23.6572L28.6328 24.2285C28.6133 24.2578 28.6035 24.292 28.6084 24.3213C28.6133 24.3506 28.6328 24.3848 28.6621 24.4043L29.1357 24.7168L28.916 24.8828C28.8672 24.9219 28.8574 24.9853 28.8916 25.0293ZM28.4277 26.9629L29.2285 26.7725L30.4639 27.5635L28.5742 27.4658L28.4277 26.9629ZM25.0635 44.5654L23.418 31.2451L24.043 29.7363C24.0625 29.7607 24.0869 29.7803 24.1211 29.7852H24.1406C24.1748 29.7852 24.2041 29.7705 24.2285 29.7461L24.9658 28.96L25.7031 29.7461C25.7324 29.7754 25.7715 29.79 25.8154 29.7852C25.8545 29.7803 25.8887 29.751 25.9082 29.7119L26.04 29.4043L27.6318 30.8887L31.582 43.4473C29.4971 44.1895 27.3096 44.5654 25.0635 44.5654ZM24.8535 44.5654C22.6221 44.5459 20.4443 44.1504 18.374 43.3936L23.2568 31.626L24.8535 44.5654ZM23.3643 30.835L23.1348 28.96L23.6035 28.7207L23.9307 29.4775L23.3643 30.835ZM26.1279 29.2041L26.333 28.7207L27.0703 29.0918L27.5098 30.4932L26.1279 29.2041ZM21.2695 27.7588L19.9561 28.4521L20.9961 26.8457L21.5088 26.9678L21.2695 27.7588ZM18.7061 24.4727L20.7178 23.8574L21.0303 24.2773L20.1953 24.8242L18.7061 24.4727ZM20.6738 20.625L22.4268 21.377L22.3975 21.9043L21.5771 21.8066L20.6738 20.625ZM25.0586 5.55176C27.2949 5.55176 29.4727 5.92773 31.5478 6.66016L28.5742 19.5996L27.4707 20.8008C27.4609 20.7715 27.4414 20.7471 27.417 20.7275C27.3828 20.708 27.3389 20.708 27.2998 20.7227L26.3379 21.2109L25.9131 20.2197C25.8984 20.1807 25.8643 20.1562 25.8203 20.1465C25.7812 20.1416 25.7373 20.1514 25.708 20.1855L25.4785 20.4297L24.4873 18.4912L25.0586 5.55176ZM24.2969 18.1201L18.4619 6.69434C20.5078 5.95703 22.6514 5.57617 24.8535 5.55176L24.2969 18.1201ZM28.4814 20.0049L28.0566 21.8457L27.5342 21.9092L27.4902 21.0889L28.4814 20.0049ZM25.3271 20.5908L24.9658 20.9717L24.3994 20.3711L24.4629 18.9062L25.3271 20.5908ZM28.9014 24.2725L29.3945 23.6133L30.8496 23.4229L29.3408 24.5605L28.9014 24.2725ZM37.4121 9.96582L28.8574 19.292L31.748 6.72852C32.0508 6.84082 32.3486 6.95801 32.6465 7.08008C34.3701 7.81738 35.9668 8.78418 37.4121 9.96582ZM17.4561 7.08496C17.7246 6.97266 17.998 6.86523 18.2666 6.7627L24.2773 18.5352L24.2041 20.166C24.1797 20.1465 24.1455 20.1416 24.1162 20.1465C24.0771 20.1514 24.043 20.1807 24.0234 20.2197L23.5986 21.2109L22.6367 20.7227C22.5977 20.7031 22.5586 20.7031 22.5195 20.7275C22.4854 20.7471 22.4609 20.7861 22.4609 20.8252L22.4414 21.1572L20.4199 20.2881L12.5781 10.0586C14.0479 8.83301 15.6836 7.83691 17.4561 7.08496ZM11.2549 11.2646C11.6309 10.8887 12.0166 10.5322 12.417 10.1904L20.0342 20.127L8.28125 15.083C9.10645 13.7012 10.0977 12.4219 11.2549 11.2646ZM7.0752 17.4658C7.39746 16.7041 7.76367 15.9717 8.17871 15.2637L20.293 20.4639L21.3037 21.7822C21.2744 21.7871 21.2451 21.8018 21.2256 21.8262C21.2012 21.8555 21.1914 21.8994 21.2012 21.9385L21.5137 22.9736L20.4639 23.2227C20.4248 23.2324 20.3906 23.2617 20.376 23.3008C20.3613 23.3398 20.3662 23.3838 20.3906 23.418L20.5908 23.6865L18.3105 24.3799L5.87402 21.4697C6.12305 20.0977 6.52832 18.7598 7.0752 17.4658ZM5.83496 21.6699L17.9199 24.4971L5.7959 28.2129C5.62988 27.1777 5.54199 26.123 5.54199 25.0586C5.54199 23.9111 5.63965 22.7832 5.83496 21.6699ZM5.83008 28.418L18.3154 24.5898L20.083 25.0049C20.0928 25.0342 20.1074 25.0537 20.1318 25.0732L21.0352 25.6641L20.3906 26.5283C20.3662 26.5625 20.3613 26.6064 20.376 26.6455C20.3906 26.6846 20.4248 26.7139 20.4639 26.7236L20.791 26.8018L19.5898 28.6523L8.09082 34.707C7.71484 34.043 7.37305 33.3594 7.0752 32.6514C6.49414 31.2842 6.0791 29.8682 5.83008 28.418ZM8.19336 34.8828L19.3555 28.999L12.3242 39.8438C11.958 39.5264 11.6016 39.1943 11.2549 38.8525C10.0586 37.6562 9.0332 36.3281 8.19336 34.8828ZM12.4805 39.9805L19.7266 28.8037L21.1914 28.0322C21.1914 28.0615 21.2012 28.0908 21.2207 28.1152C21.2451 28.1445 21.2891 28.1641 21.3281 28.1592L22.4023 28.0322L22.4609 29.1113C22.4609 29.1504 22.4854 29.1895 22.5195 29.209C22.5537 29.2285 22.5977 29.2285 22.6367 29.2139L22.9346 29.0625L23.2031 31.2256L18.1787 43.335C17.9346 43.2422 17.6953 43.1445 17.4512 43.0469C15.6445 42.2656 13.9795 41.2451 12.4805 39.9805ZM32.6416 43.0322C32.3584 43.1543 32.0703 43.2666 31.7773 43.374L27.9346 31.1719L37.5 40.0781C36.0352 41.2939 34.4092 42.2852 32.6416 43.0322ZM38.8428 38.8525C38.4619 39.2334 38.0664 39.5947 37.6611 39.9414L27.8125 30.7764L27.3242 29.2188C27.3535 29.2285 27.3877 29.2236 27.4121 29.2041C27.4463 29.1846 27.4707 29.1455 27.4707 29.1064L27.5293 28.0273L28.6035 28.1543C28.6426 28.1592 28.6865 28.1445 28.7109 28.1104C28.7354 28.0811 28.7451 28.0371 28.7354 27.998L28.6377 27.6758L30.8105 27.7881L41.9092 34.8682C41.0693 36.3184 40.0439 37.6514 38.8428 38.8525ZM43.0225 32.6514C42.7246 33.3545 42.3877 34.0332 42.0166 34.6875L31.2305 27.8076L44.2578 28.4814C44.0039 29.9121 43.5938 31.3037 43.0225 32.6514ZM44.292 28.2764L30.8789 27.5879L29.502 26.709C29.5312 26.6943 29.5508 26.6699 29.5605 26.6406C29.5752 26.6016 29.5703 26.5576 29.5459 26.5234L28.9014 25.6592L29.8047 25.0684C29.8389 25.0439 29.8584 25.0098 29.8584 24.9658C29.8584 24.9219 29.8389 24.8877 29.8047 24.8633L29.5215 24.6777L31.2598 23.3643L44.2627 21.6602C44.458 22.7734 44.5557 23.9062 44.5557 25.0537C44.5557 26.1475 44.4678 27.2217 44.292 28.2764Z" fill="white"/>
<path d="M25.0488 22.8857C23.8525 22.8857 22.876 23.8623 22.876 25.0586C22.876 26.2549 23.8525 27.2314 25.0488 27.2314C26.2451 27.2314 27.2217 26.2549 27.2217 25.0586C27.2217 23.8623 26.2451 22.8857 25.0488 22.8857ZM25.0488 26.7432C24.1211 26.7432 23.3643 25.9863 23.3643 25.0586C23.3643 24.1309 24.1211 23.374 25.0488 23.374C25.9766 23.374 26.7334 24.1309 26.7334 25.0586C26.7334 25.9863 25.9766 26.7432 25.0488 26.7432Z" fill="white"/>
<path d="M25.0488 21.7529C23.2227 21.7529 21.7383 23.2324 21.7383 25.0635C21.7383 26.8896 23.2178 28.374 25.0488 28.374C26.8799 28.374 28.3594 26.8945 28.3594 25.0635C28.3594 23.2324 26.875 21.7529 25.0488 21.7529ZM25.0488 27.8809C23.4961 27.8809 22.2266 26.6162 22.2266 25.0586C22.2266 23.501 23.4912 22.2363 25.0488 22.2363C26.6064 22.2363 27.8711 23.501 27.8711 25.0586C27.8711 26.6162 26.6016 27.8809 25.0488 27.8809Z" fill="white"/>
</svg>
