<svg width="160" height="107" viewBox="0 0 160 107" fill="none" xmlns="http://www.w3.org/2000/svg">
<path d="M149.246 0.359741L141.442 3.16904L142.632 6.47386L60.5921 19.9357L57.4013 9.39304L53.4331 10.5935L56.798 21.7104L0.0439453 85.381L74.7672 92.9526C75.4389 95.2415 77.5557 96.9188 80.0582 96.9188C83.0997 96.9188 85.5731 94.4454 85.5731 91.4039C85.5731 90.5953 85.3969 89.8282 85.0838 89.1357L149.64 25.9378L151.622 31.4424L159.426 28.6331L149.246 0.359741ZM75.186 88.8247L7.66534 82.7209L58.1602 26.2115L76.5958 87.1163C76.0174 87.5828 75.5384 88.1633 75.186 88.8247ZM80.0582 94.8455C78.157 94.8455 76.6165 93.3051 76.6165 91.4039C76.6165 89.5027 78.157 87.9622 80.0582 87.9622C81.9594 87.9622 83.4998 89.5027 83.4998 91.4039C83.4998 93.303 81.9594 94.8455 80.0582 94.8455ZM82.0776 86.2725C81.6007 86.0838 81.0928 85.9594 80.562 85.9117L61.8029 23.9351L144.06 10.438L148.095 21.6441L82.0776 86.2725Z" fill="white"/>
<rect x="129" y="77" width="30" height="30" fill="url(#paint0_linear_0_1)"/>
<path d="M142.949 92.0506C143.089 92.1905 143.173 92.3766 143.186 92.5741C143.198 92.7715 143.138 92.9667 143.017 93.1231L142.949 93.1994L137.837 98.3125L141.544 98.3133C141.743 98.3133 141.935 98.3864 142.084 98.5186C142.232 98.6509 142.327 98.8331 142.351 99.0308L142.356 99.1258C142.356 99.3249 142.283 99.5171 142.151 99.6659C142.018 99.8146 141.836 99.9095 141.638 99.9326L141.544 99.9383H135.875L135.814 99.9359L135.712 99.9221L135.622 99.8977L135.531 99.8619L135.452 99.8197L135.374 99.7652L135.301 99.7003C135.272 99.6719 135.246 99.6415 135.222 99.6093L135.164 99.5199L135.12 99.4272L135.092 99.3419L135.067 99.2201L135.062 99.125V93.4342C135.063 93.2272 135.142 93.0282 135.285 92.8778C135.427 92.7273 135.621 92.6369 135.828 92.6248C136.034 92.6128 136.238 92.6801 136.397 92.813C136.555 92.9459 136.657 93.1344 136.682 93.34L136.688 93.4342L136.687 97.1628L141.801 92.0506C141.953 91.8982 142.16 91.8127 142.375 91.8127C142.59 91.8127 142.797 91.8982 142.949 92.0506ZM146.456 82.0625H152.125L152.186 82.0649L152.288 82.0787L152.378 82.1031L152.469 82.1389L152.548 82.1811L152.626 82.2356L152.699 82.3006C152.729 82.329 152.755 82.3599 152.778 82.3916L152.836 82.4809L152.88 82.5736L152.908 82.6589L152.933 82.7807L152.938 82.875V88.5657C152.937 88.7728 152.858 88.9718 152.715 89.1222C152.573 89.2727 152.379 89.3631 152.172 89.3752C151.966 89.3872 151.762 89.3199 151.603 89.187C151.445 89.0541 151.343 88.8656 151.318 88.66L151.312 88.5657V84.8364L146.199 89.9494C146.053 90.0952 145.857 90.1798 145.651 90.1861C145.444 90.1924 145.243 90.1199 145.089 89.9834C144.934 89.8468 144.837 89.6565 144.817 89.451C144.797 89.2455 144.857 89.0402 144.983 88.8769L145.051 88.8006L150.162 83.6875H146.457C146.258 83.6877 146.066 83.6147 145.917 83.4824C145.768 83.3502 145.673 83.1678 145.649 82.9701L145.644 82.875C145.644 82.6759 145.717 82.4837 145.849 82.335C145.982 82.1862 146.164 82.0913 146.362 82.0682L146.456 82.0625Z" fill="white"/>
<defs>
<linearGradient id="paint0_linear_0_1" x1="129" y1="92.4286" x2="159" y2="92.4286" gradientUnits="userSpaceOnUse">
<stop stop-color="#23C8B5"/>
<stop offset="1" stop-color="#23A9D1"/>
</linearGradient>
</defs>
</svg>
