<svg width="36" height="36" viewBox="0 0 36 36" fill="none" xmlns="http://www.w3.org/2000/svg">
<g clip-path="url(#clip0_149_940)">
<path d="M4.5 18C4.5 19.7728 4.84919 21.5283 5.52763 23.1662C6.20606 24.8041 7.20047 26.2923 8.45406 27.5459C9.70765 28.7995 11.1959 29.7939 12.8338 30.4724C14.4717 31.1508 16.2272 31.5 18 31.5C19.7728 31.5 21.5283 31.1508 23.1662 30.4724C24.8041 29.7939 26.2923 28.7995 27.5459 27.5459C28.7995 26.2923 29.7939 24.8041 30.4724 23.1662C31.1508 21.5283 31.5 19.7728 31.5 18C31.5 14.4196 30.0777 10.9858 27.5459 8.45406C25.0142 5.92232 21.5804 4.5 18 4.5C14.4196 4.5 10.9858 5.92232 8.45406 8.45406C5.92232 10.9858 4.5 14.4196 4.5 18Z" stroke="url(#paint0_linear_149_940)" stroke-width="2" stroke-linecap="round" stroke-linejoin="round"/>
<path d="M13.5 18H22.5" stroke="url(#paint1_linear_149_940)" stroke-width="2" stroke-linecap="round" stroke-linejoin="round"/>
<path d="M18 13.5V22.5" stroke="url(#paint2_linear_149_940)" stroke-width="2" stroke-linecap="round" stroke-linejoin="round"/>
</g>
<defs>
<linearGradient id="paint0_linear_149_940" x1="10" y1="7" x2="26" y2="29" gradientUnits="userSpaceOnUse">
<stop stop-color="#23C9B5" stop-opacity="0.909804"/>
<stop offset="1" stop-color="#23A9D2"/>
</linearGradient>
<linearGradient id="paint1_linear_149_940" x1="13.5" y1="13.5" x2="22.5" y2="23" gradientUnits="userSpaceOnUse">
<stop stop-color="#23C9B5"/>
<stop offset="1" stop-color="#23A9D2"/>
</linearGradient>
<linearGradient id="paint2_linear_149_940" x1="13.5" y1="13.5" x2="23" y2="23" gradientUnits="userSpaceOnUse">
<stop stop-color="#23C9B5"/>
<stop offset="1" stop-color="#23A9D2"/>
</linearGradient>
<clipPath id="clip0_149_940">
<rect width="36" height="36" fill="white"/>
</clipPath>
</defs>
</svg>
