<svg width="30" height="30" viewBox="0 0 30 30" fill="none" xmlns="http://www.w3.org/2000/svg">
<rect width="30" height="30" fill="url(#paint0_linear_0_1)"/>
<path d="M13.9494 15.0506C14.0893 15.1905 14.1734 15.3766 14.1858 15.5741C14.1982 15.7715 14.1381 15.9667 14.0169 16.1231L13.9494 16.1994L8.83719 21.3125L12.5438 21.3133C12.7428 21.3133 12.9349 21.3864 13.0836 21.5186C13.2323 21.6509 13.3273 21.8331 13.3506 22.0308L13.3563 22.1258C13.3563 22.3249 13.2831 22.5171 13.1507 22.6659C13.0183 22.8146 12.8359 22.9095 12.6381 22.9326L12.5438 22.9383H6.875L6.81406 22.9359L6.71169 22.9221L6.6215 22.8977L6.53131 22.8619L6.45169 22.8197L6.37369 22.7652L6.30056 22.7003C6.2721 22.6719 6.24576 22.6415 6.22175 22.6093L6.16406 22.5199L6.12019 22.4272L6.09175 22.3419L6.06738 22.2201L6.0625 22.125V16.4342C6.06293 16.2272 6.14238 16.0282 6.2846 15.8778C6.42683 15.7273 6.62112 15.6369 6.82779 15.6248C7.03446 15.6128 7.23793 15.6801 7.39665 15.813C7.55537 15.9459 7.65736 16.1344 7.68181 16.34L7.6875 16.4342L7.68669 20.1628L12.8006 15.0506C12.9529 14.8982 13.1596 14.8127 13.375 14.8127C13.5904 14.8127 13.7971 14.8982 13.9494 15.0506ZM17.4562 5.0625H23.125L23.1859 5.06494L23.2883 5.07875L23.3785 5.10313L23.4687 5.13887L23.5483 5.18112L23.6263 5.23556L23.6994 5.30056C23.7287 5.329 23.7547 5.35988 23.7783 5.39156L23.8359 5.48094L23.8798 5.57356L23.9083 5.65888L23.9326 5.78075L23.9375 5.875V11.5657C23.9371 11.7728 23.8576 11.9718 23.7154 12.1222C23.5732 12.2727 23.3789 12.3631 23.1722 12.3752C22.9655 12.3872 22.7621 12.3199 22.6034 12.187C22.4446 12.0541 22.3426 11.8656 22.3182 11.66L22.3125 11.5657V7.83637L17.1994 12.9494C17.0532 13.0952 16.857 13.1798 16.6507 13.1861C16.4444 13.1924 16.2434 13.1199 16.0885 12.9834C15.9337 12.8468 15.8366 12.6565 15.8171 12.451C15.7975 12.2455 15.8569 12.0402 15.9831 11.8769L16.0506 11.8006L21.162 6.6875H17.457C17.2579 6.68767 17.0656 6.6147 16.9167 6.48244C16.7678 6.35018 16.6727 6.16784 16.6494 5.97006L16.6437 5.875C16.6437 5.67587 16.7169 5.48369 16.8493 5.33495C16.9817 5.18622 17.1641 5.09129 17.3619 5.06819L17.4562 5.0625Z" fill="white"/>
<defs>
<linearGradient id="paint0_linear_0_1" x1="1.16092e-07" y1="15.4286" x2="30" y2="15.4286" gradientUnits="userSpaceOnUse">
<stop stop-color="#23C8B5"/>
<stop offset="1" stop-color="#23A9D1"/>
</linearGradient>
</defs>
</svg>
